<svg xmlns="http://www.w3.org/2000/svg" xmlns:xlink="http://www.w3.org/1999/xlink" width="44" zoomAndPan="magnify" viewBox="0 0 33 30.000001" height="40" preserveAspectRatio="xMidYMid meet" version="1.0"><defs><clipPath id="62ca44aeba"><path d="M 6.617188 7.402344 L 26.503906 7.402344 L 26.503906 27 L 6.617188 27 Z M 6.617188 7.402344 " clip-rule="nonzero"/></clipPath><clipPath id="11fcba9580"><path d="M 5 0 L 27.953125 0 L 27.953125 29 L 5 29 Z M 5 0 " clip-rule="nonzero"/></clipPath></defs><g clip-path="url(#62ca44aeba)"><path fill="#ea9b00" d="M 6.617188 7.402344 L 26.519531 7.402344 L 26.519531 27 L 6.617188 27 Z M 6.617188 7.402344 " fill-opacity="1" fill-rule="nonzero"/></g><g clip-path="url(#11fcba9580)"><path fill="#ea9b00" d="M 25.09375 5.917969 L 22.226562 5.917969 C 22.226562 2.75 19.660156 0.183594 16.496094 0.183594 C 13.328125 0.183594 10.761719 2.75 10.761719 5.917969 L 7.898438 5.917969 C 6.320312 5.917969 5.03125 7.207031 5.03125 8.785156 L 5.03125 25.980469 C 5.03125 27.554688 6.320312 28.847656 7.898438 28.847656 L 25.09375 28.847656 C 26.667969 28.847656 27.960938 27.554688 27.960938 25.980469 L 27.960938 8.785156 C 27.960938 7.207031 26.667969 5.917969 25.09375 5.917969 Z M 16.496094 3.050781 C 18.070312 3.050781 19.359375 4.339844 19.359375 5.917969 L 13.628906 5.917969 C 13.628906 4.339844 14.917969 3.050781 16.496094 3.050781 Z M 25.09375 25.980469 L 7.898438 25.980469 L 7.898438 8.785156 L 10.761719 8.785156 L 10.761719 11.648438 C 10.761719 12.4375 11.40625 13.082031 12.195312 13.082031 C 12.984375 13.082031 13.628906 12.4375 13.628906 11.648438 L 13.628906 8.785156 L 19.359375 8.785156 L 19.359375 11.648438 C 19.359375 12.4375 20.003906 13.082031 20.792969 13.082031 C 21.582031 13.082031 22.226562 12.4375 22.226562 11.648438 L 22.226562 8.785156 L 25.09375 8.785156 Z M 25.09375 25.980469 " fill-opacity="1" fill-rule="nonzero"/></g></svg>