<svg xmlns="http://www.w3.org/2000/svg" xmlns:xlink="http://www.w3.org/1999/xlink" width="44" zoomAndPan="magnify" viewBox="0 0 33 30.000001" height="40" preserveAspectRatio="xMidYMid meet" version="1.0"><defs><clipPath id="780b6879d1"><path d="M 5 0 L 27.953125 0 L 27.953125 29 L 5 29 Z M 5 0 " clip-rule="nonzero"/></clipPath></defs><g clip-path="url(#780b6879d1)"><path fill="#002f52" d="M 24.828125 5.917969 L 22 5.917969 C 22 2.75 19.46875 0.183594 16.34375 0.183594 C 13.214844 0.183594 10.683594 2.75 10.683594 5.917969 L 7.855469 5.917969 C 6.300781 5.917969 5.027344 7.207031 5.027344 8.785156 L 5.027344 25.980469 C 5.027344 27.554688 6.300781 28.847656 7.855469 28.847656 L 24.828125 28.847656 C 26.382812 28.847656 27.65625 27.554688 27.65625 25.980469 L 27.65625 8.785156 C 27.65625 7.207031 26.382812 5.917969 24.828125 5.917969 Z M 16.34375 3.050781 C 17.898438 3.050781 19.171875 4.339844 19.171875 5.917969 L 13.511719 5.917969 C 13.511719 4.339844 14.785156 3.050781 16.34375 3.050781 Z M 24.828125 25.980469 L 7.855469 25.980469 L 7.855469 8.785156 L 10.683594 8.785156 L 10.683594 11.648438 C 10.683594 12.4375 11.320312 13.082031 12.097656 13.082031 C 12.875 13.082031 13.511719 12.4375 13.511719 11.648438 L 13.511719 8.785156 L 19.171875 8.785156 L 19.171875 11.648438 C 19.171875 12.4375 19.808594 13.082031 20.585938 13.082031 C 21.363281 13.082031 22 12.4375 22 11.648438 L 22 8.785156 L 24.828125 8.785156 Z M 24.828125 25.980469 " fill-opacity="1" fill-rule="nonzero"/></g></svg>