<svg xmlns="http://www.w3.org/2000/svg" xmlns:xlink="http://www.w3.org/1999/xlink" width="44" zoomAndPan="magnify" viewBox="0 0 33 30.000001" height="40" preserveAspectRatio="xMidYMid meet" version="1.0"><defs><clipPath id="6b87a0b85c"><path d="M 2 0 L 31 0 L 31 25.769531 L 2 25.769531 Z M 2 0 " clip-rule="nonzero"/></clipPath><clipPath id="59bc70adcd"><path d="M 0.53125 0 L 32.464844 0 L 32.464844 29.03125 L 0.53125 29.03125 Z M 0.53125 0 " clip-rule="nonzero"/></clipPath><clipPath id="52fd8f4ab4"><path d="M 23.605469 0 C 20.855469 0 18.210938 1.28125 16.488281 3.308594 C 14.761719 1.28125 12.121094 0 9.367188 0 C 4.496094 0 0.667969 3.828125 0.667969 8.703125 C 0.667969 14.683594 6.046875 19.554688 14.195312 26.960938 L 16.488281 29.03125 L 18.78125 26.945312 C 26.929688 19.554688 32.308594 14.683594 32.308594 8.703125 C 32.308594 3.828125 28.480469 0 23.605469 0 Z M 16.644531 24.601562 L 16.488281 24.761719 L 16.328125 24.601562 C 8.796875 17.785156 3.832031 13.273438 3.832031 8.703125 C 3.832031 5.539062 6.203125 3.164062 9.367188 3.164062 C 11.804688 3.164062 14.175781 4.730469 15.015625 6.898438 L 17.976562 6.898438 C 18.796875 4.730469 21.171875 3.164062 23.605469 3.164062 C 26.769531 3.164062 29.144531 5.539062 29.144531 8.703125 C 29.144531 13.273438 24.175781 17.785156 16.644531 24.601562 Z M 16.644531 24.601562 " clip-rule="nonzero"/></clipPath></defs><g clip-path="url(#6b87a0b85c)"><path fill="#c6302c" d="M 30.285156 7.066406 C 28.71875 -0.917969 18.890625 -1.050781 16.464844 6.414062 C 14.042969 -1.050781 4.214844 -0.917969 2.644531 7.066406 C 1.222656 14.3125 16.464844 25.742188 16.464844 25.742188 C 16.464844 25.742188 31.707031 14.3125 30.285156 7.066406 Z M 30.285156 7.066406 " fill-opacity="1" fill-rule="nonzero"/></g><g clip-path="url(#59bc70adcd)"><g clip-path="url(#52fd8f4ab4)"><path fill="#c6302c" d="M 0.667969 0 L 0.667969 29.03125 L 32.308594 29.03125 L 32.308594 0 Z M 0.667969 0 " fill-opacity="1" fill-rule="nonzero"/></g></g></svg>