<svg xmlns="http://www.w3.org/2000/svg" xmlns:xlink="http://www.w3.org/1999/xlink" width="44" zoomAndPan="magnify" viewBox="0 0 33 30.000001" height="40" preserveAspectRatio="xMidYMid meet" version="1.0"><defs><clipPath id="e63b5bddf8"><path d="M 3.433594 1.453125 L 29.566406 1.453125 L 29.566406 27.582031 L 3.433594 27.582031 Z M 3.433594 1.453125 " clip-rule="nonzero"/></clipPath><clipPath id="53f3ebea4a"><path d="M 16.5 1.453125 C 9.285156 1.453125 3.433594 7.300781 3.433594 14.515625 C 3.433594 21.730469 9.285156 27.582031 16.5 27.582031 C 23.714844 27.582031 29.566406 21.730469 29.566406 14.515625 C 29.566406 7.300781 23.714844 1.453125 16.5 1.453125 Z M 16.5 1.453125 " clip-rule="nonzero"/></clipPath><clipPath id="5c123fa495"><path d="M 2.308594 0.328125 L 30.617188 0.328125 L 30.617188 28.632812 L 2.308594 28.632812 Z M 2.308594 0.328125 " clip-rule="nonzero"/></clipPath></defs><g clip-path="url(#e63b5bddf8)"><g clip-path="url(#53f3ebea4a)"><path fill="#ea9b00" d="M 3.433594 1.453125 L 29.566406 1.453125 L 29.566406 27.582031 L 3.433594 27.582031 Z M 3.433594 1.453125 " fill-opacity="1" fill-rule="nonzero"/></g></g><g clip-path="url(#5c123fa495)"><path fill="#ea9b00" d="M 16.496094 0.328125 C 8.667969 0.328125 2.308594 6.683594 2.308594 14.515625 C 2.308594 22.34375 8.667969 28.699219 16.496094 28.699219 C 24.328125 28.699219 30.683594 22.34375 30.683594 14.515625 C 30.683594 6.683594 24.328125 0.328125 16.496094 0.328125 Z M 9.503906 23.421875 C 10.113281 22.148438 13.832031 20.898438 16.496094 20.898438 C 19.164062 20.898438 22.894531 22.148438 23.492188 23.421875 C 21.5625 24.957031 19.136719 25.863281 16.496094 25.863281 C 13.859375 25.863281 11.433594 24.957031 9.503906 23.421875 Z M 25.519531 21.367188 C 23.492188 18.898438 18.570312 18.0625 16.496094 18.0625 C 14.425781 18.0625 9.503906 18.898438 7.476562 21.367188 C 6.027344 19.464844 5.148438 17.097656 5.148438 14.515625 C 5.148438 8.257812 10.242188 3.164062 16.496094 3.164062 C 22.753906 3.164062 27.847656 8.257812 27.847656 14.515625 C 27.847656 17.097656 26.96875 19.464844 25.519531 21.367188 Z M 16.496094 6 C 13.746094 6 11.53125 8.214844 11.53125 10.96875 C 11.53125 13.71875 13.746094 15.933594 16.496094 15.933594 C 19.25 15.933594 21.464844 13.71875 21.464844 10.96875 C 21.464844 8.214844 19.25 6 16.496094 6 Z M 16.496094 13.09375 C 15.320312 13.09375 14.371094 12.144531 14.371094 10.96875 C 14.371094 9.789062 15.320312 8.839844 16.496094 8.839844 C 17.675781 8.839844 18.625 9.789062 18.625 10.96875 C 18.625 12.144531 17.675781 13.09375 16.496094 13.09375 Z M 16.496094 13.09375 " fill-opacity="1" fill-rule="nonzero"/></g></svg>